<mxfile host="app.diagrams.net" modified="2024-02-05T17:23:46.187Z" agent="Mozilla/5.0 (Windows NT 10.0; Win64; x64) AppleWebKit/537.36 (KHTML, like Gecko) Chrome/120.0.0.0 Safari/537.36" version="23.1.1" etag="x9lZGB8j9N1j_uJt4dO8" type="github">
  <diagram name="PÃ¡gina-1" id="xtnh5BJT67AwJ02yp_cw">
    <mxGraphModel>
      <root>
        <mxCell id="0" />
        <mxCell id="1" parent="0" />
      </root>
    </mxGraphModel>
  </diagram>
</mxfile>
